<?xml version="1.0" encoding="UTF-8" standalone="no"?>
<svg
   xmlns:dc="http://purl.org/dc/elements/1.1/"
   xmlns:cc="http://creativecommons.org/ns#"
   xmlns:rdf="http://www.w3.org/1999/02/22-rdf-syntax-ns#"
   xmlns:svg="http://www.w3.org/2000/svg"
   xmlns="http://www.w3.org/2000/svg"
   xmlns:sodipodi="http://sodipodi.sourceforge.net/DTD/sodipodi-0.dtd"
   xmlns:inkscape="http://www.inkscape.org/namespaces/inkscape"
   width="1325px"
   height="782px"
   viewBox="0 0 1325 782"
   id="svg13304"
   version="1.1"
   inkscape:version="0.48.4 r9939"
   sodipodi:docname="btf10.svg">
  <metadata
     id="metadata13442">
    <rdf:RDF>
      <cc:Work
         rdf:about="">
        <dc:format>image/svg+xml</dc:format>
        <dc:type
           rdf:resource="http://purl.org/dc/dcmitype/StillImage" />
      </cc:Work>
    </rdf:RDF>
  </metadata>
  <sodipodi:namedview
     pagecolor="#ffffff"
     bordercolor="#666666"
     borderopacity="1"
     objecttolerance="10"
     gridtolerance="10"
     guidetolerance="10"
     inkscape:pageopacity="0"
     inkscape:pageshadow="2"
     inkscape:window-width="640"
     inkscape:window-height="480"
     id="namedview13440"
     showgrid="false"
     inkscape:zoom="0.26867925"
     inkscape:cx="662.5"
     inkscape:cy="391"
     inkscape:window-x="0"
     inkscape:window-y="25"
     inkscape:window-maximized="0"
     inkscape:current-layer="svg13304" />
  <title
     id="title13306">ParaView GL2PS Export</title>
  <desc
     id="desc13308">
Creator: GL2PS 1.3.8, (C) 1999-2012 C. Geuzaine
For: VTK
CreationDate: Fri Jun 20 15:02:39 2014
</desc>
  <defs
     id="defs13310" />
  <polyline
     style="fill:none;stroke:#00007f;stroke-width:3"
     id="polyline13314"
     points="35.1211,602.458 0,611.717" />
  <polyline
     style="fill:none;stroke:#00007f;stroke-width:3"
     id="polyline13316"
     points="0,258.151 35.1211,249.818 35.1211,602.458" />
  <polyline
     style="fill:none;stroke:#00007f;stroke-width:3"
     id="polyline13318"
     points="397.311,697.947 35.1211,602.458 35.1211,249.818 397.311,335.758 397.311,697.947" />
  <polyline
     style="fill:none;stroke:#00007f;stroke-width:3"
     id="polyline13320"
     points="759.5,516.853 397.311,697.947 397.311,335.758 759.5,172.773 759.5,516.853" />
  <polyline
     style="fill:none;stroke:#00007f;stroke-width:3"
     id="polyline13322"
     points="1121.69,697.947 759.5,516.853 759.5,172.773 1121.69,335.758 1121.69,697.947 1121.69,335.758" />
  <polyline
     style="fill:none;stroke:#00007f;stroke-width:3"
     id="polyline13324"
     points="1325,644.345 1121.69,697.947" />
  <polyline
     style="fill:none;stroke:#00007f;stroke-width:3"
     id="polyline13326"
     points="1121.69,335.758 1325,287.516" />
  <polyline
     style="fill:none;stroke:#00007f;stroke-width:3"
     id="polyline13328"
     points="35.1211,249.818 0,258.151" />
  <polyline
     style="fill:none;stroke:#00007f;stroke-width:3"
     id="polyline13330"
     points="35.1211,0 35.1211,249.818 35.1211,0" />
  <polyline
     style="fill:none;stroke:#00007f;stroke-width:3"
     id="polyline13332"
     points="397.311,335.758 35.1211,249.818" />
  <polyline
     style="fill:none;stroke:#00007f;stroke-width:3"
     id="polyline13334"
     points="397.311,0 397.311,335.758 397.311,0" />
  <polyline
     style="fill:none;stroke:#00007f;stroke-width:3"
     id="polyline13336"
     points="759.5,172.773 397.311,335.758" />
  <polyline
     style="fill:none;stroke:#00007f;stroke-width:3"
     id="polyline13338"
     points="759.5,0 759.5,172.773 759.5,0" />
  <polyline
     style="fill:none;stroke:#00007f;stroke-width:3"
     id="polyline13340"
     points="1121.69,335.758 759.5,172.773" />
  <polyline
     style="fill:none;stroke:#00007f;stroke-width:3"
     id="polyline13342"
     points="1121.69,0 1121.69,335.758 1121.69,0" />
  <polyline
     style="fill:none;stroke:#00007f;stroke-width:3"
     id="polyline13344"
     points="1325,287.516 1121.69,335.758" />
  <polygon
     style="fill:#ffffff"
     id="polygon13346"
     points="0,611.717 35.1211,602.458 0,576.596 " />
  <polygon
     style="fill:#ffffff"
     id="polygon13348"
     points="35.1211,602.458 35.1211,249.818 0,258.151 " />
  <polygon
     style="fill:#ffffff"
     id="polygon13350"
     points="35.1211,602.458 0,258.151 0,576.596 " />
  <polygon
     style="fill:#ffffff"
     id="polygon13352"
     points="35.1211,249.818 35.1211,602.458 397.311,697.947 " />
  <polygon
     style="fill:#ffffff"
     id="polygon13354"
     points="35.1211,249.818 397.311,697.947 397.311,335.758 " />
  <polygon
     style="fill:#ffffff"
     id="polygon13356"
     points="397.311,335.758 397.311,697.947 759.5,516.853 " />
  <polygon
     style="fill:#ffffff"
     id="polygon13358"
     points="397.311,335.758 759.5,516.853 759.5,172.773 " />
  <polygon
     style="fill:#ffffff"
     id="polygon13360"
     points="759.5,172.773 759.5,516.853 1121.69,697.947 " />
  <polygon
     style="fill:#ffffff"
     id="polygon13362"
     points="759.5,172.773 1121.69,697.947 1121.69,335.758 " />
  <polygon
     style="fill:#ffffff"
     id="polygon13364"
     points="1121.69,697.947 1325,644.345 1325,485.466 " />
  <polygon
     style="fill:#ffffff"
     id="polygon13366"
     points="1121.69,697.947 1325,485.466 1121.69,335.758 " />
  <polygon
     style="fill:#ffffff"
     id="polygon13368"
     points="1325,287.516 1121.69,335.758 1325,485.466 " />
  <polygon
     style="fill:#ffffff"
     id="polygon13370"
     points="0,258.151 35.1211,249.818 0,223.03 " />
  <polygon
     style="fill:#ffffff"
     id="polygon13372"
     points="35.1211,249.818 35.1211,0 0,0 " />
  <polygon
     style="fill:#ffffff"
     id="polygon13374"
     points="35.1211,249.818 0,0 0,223.03 " />
  <polygon
     style="fill:#ffffff"
     id="polygon13376"
     points="35.1211,249.818 397.311,335.758 120.034,0 " />
  <polygon
     style="fill:#ffffff"
     id="polygon13378"
     points="35.1211,249.818 120.034,0 35.1211,0 " />
  <polygon
     style="fill:#ffffff"
     id="polygon13380"
     points="397.311,335.758 397.311,0 120.034,0 " />
  <polygon
     style="fill:#ffffff"
     id="polygon13382"
     points="397.311,335.758 759.5,172.773 445.368,0 " />
  <polygon
     style="fill:#ffffff"
     id="polygon13384"
     points="397.311,335.758 445.368,0 397.311,0 " />
  <polygon
     style="fill:#ffffff"
     id="polygon13386"
     points="759.5,172.773 759.5,0 445.368,0 " />
  <polygon
     style="fill:#ffffff"
     id="polygon13388"
     points="759.5,172.773 1121.69,335.758 881.862,0 " />
  <polygon
     style="fill:#ffffff"
     id="polygon13390"
     points="759.5,172.773 881.862,0 759.5,0 " />
  <polygon
     style="fill:#ffffff"
     id="polygon13392"
     points="1121.69,335.758 1121.69,0 881.862,0 " />
  <polygon
     style="fill:#ffffff"
     id="polygon13394"
     points="1121.69,335.758 1325,287.516 1325,128.638 " />
  <polygon
     style="fill:#ffffff"
     id="polygon13396"
     points="1121.69,335.758 1325,128.638 1156.34,0 " />
  <polygon
     style="fill:#ffffff"
     id="polygon13398"
     points="1121.69,335.758 1156.34,0 1121.69,0 " />
  <polygon
     style="fill:#ffffff"
     id="polygon13400"
     points="1156.34,0 1325,128.638 1325,0 " />
  <polyline
     style="fill:none;stroke:#00007f;stroke-width:3"
     id="polyline13402"
     points="0,611.717 35.1211,602.458 35.1211,249.818 0,258.151" />
  <polyline
     style="fill:none;stroke:#00007f;stroke-width:3"
     id="polyline13404"
     points="35.1211,249.818 35.1211,602.458 397.311,697.947 397.311,335.758 35.1211,249.818" />
  <polyline
     style="fill:none;stroke:#00007f;stroke-width:3"
     id="polyline13408"
     points="759.5,172.773 759.5,516.853 1121.69,697.947 1121.69,335.758 759.5,172.773" />
  <polyline
     style="fill:none;stroke:#00007f;stroke-width:3"
     id="polyline13410"
     points="1121.69,697.947 1325,644.345" />
  <polyline
     style="fill:none;stroke:#00007f;stroke-width:3"
     id="polyline13412"
     points="1121.69,335.758 1121.69,697.947" />
  <polyline
     style="fill:none;stroke:#00007f;stroke-width:3"
     id="polyline13414"
     points="1325,287.516 1121.69,335.758" />
  <polyline
     style="fill:none;stroke:#00007f;stroke-width:3"
     id="polyline13416"
     points="0,258.151 35.1211,249.818 35.1211,0" />
  <polyline
     style="fill:none;stroke:#00007f;stroke-width:3"
     id="polyline13418"
     points="35.1211,249.818 397.311,335.758" />
  <polyline
     style="fill:none;stroke:#00007f;stroke-width:3"
     id="polyline13420"
     points="35.1211,0 35.1211,249.818" />
  <polyline
     style="fill:none;stroke:#00007f;stroke-width:3"
     id="polyline13422"
     points="397.311,335.758 397.311,0" />
  <polyline
     style="fill:none;stroke:#00007f;stroke-width:3"
     id="polyline13424"
     points="397.311,335.758 759.5,172.773" />
  <polyline
     style="fill:none;stroke:#00007f;stroke-width:3"
     id="polyline13426"
     points="397.311,0 397.311,335.758" />
  <polyline
     style="fill:none;stroke:#ff0000;stroke-width:3"
     id="polyline13406"
     points="397.311,335.758 397.311,697.947 759.5,516.853 759.5,172.773 397.311,335.758" />
  <polyline
     style="fill:none;stroke:#00007f;stroke-width:3"
     id="polyline13428"
     points="759.5,172.773 759.5,0" />
  <polyline
     style="fill:none;stroke:#00007f;stroke-width:3"
     id="polyline13430"
     points="759.5,172.773 1121.69,335.758" />
  <polyline
     style="fill:none;stroke:#00007f;stroke-width:3"
     id="polyline13432"
     points="759.5,0 759.5,172.773" />
  <polyline
     style="fill:none;stroke:#00007f;stroke-width:3"
     id="polyline13434"
     points="1121.69,335.758 1121.69,0" />
  <polyline
     style="fill:none;stroke:#00007f;stroke-width:3"
     id="polyline13436"
     points="1121.69,335.758 1325,287.516" />
  <polyline
     style="fill:none;stroke:#00007f;stroke-width:3"
     id="polyline13438"
     points="1121.69,0 1121.69,335.758" />
</svg>
