<?xml version="1.0" encoding="UTF-8" standalone="no"?>
<svg xmlns="http://www.w3.org/2000/svg"
     xmlns:xlink="http://www.w3.org/1999/xlink"
     width="1325px" height="782px" viewBox="0 0 1325 782">
<title>ParaView GL2PS Export</title>
<desc>
Creator: GL2PS 1.3.8, (C) 1999-2012 C. Geuzaine
For: VTK
CreationDate: Fri Jun 20 15:02:39 2014
</desc>
<defs>
</defs>
<g>
<polyline fill="none" stroke="#00007f" stroke-width="3" points="35.1211,602.458 0,611.717"/>
<polyline fill="none" stroke="#00007f" stroke-width="3" points="0,258.151 35.1211,249.818 35.1211,602.458"/>
<polyline fill="none" stroke="#00007f" stroke-width="3" points="397.311,697.947 35.1211,602.458 35.1211,249.818 397.311,335.758 397.311,697.947"/>
<polyline fill="none" stroke="#00007f" stroke-width="3" points="759.5,516.853 397.311,697.947 397.311,335.758 759.5,172.773 759.5,516.853"/>
<polyline fill="none" stroke="#00007f" stroke-width="3" points="1121.69,697.947 759.5,516.853 759.5,172.773 1121.69,335.758 1121.69,697.947 1121.69,335.758"/>
<polyline fill="none" stroke="#00007f" stroke-width="3" points="1325,644.345 1121.69,697.947"/>
<polyline fill="none" stroke="#00007f" stroke-width="3" points="1121.69,335.758 1325,287.516"/>
<polyline fill="none" stroke="#00007f" stroke-width="3" points="35.1211,249.818 0,258.151"/>
<polyline fill="none" stroke="#00007f" stroke-width="3" points="35.1211,0 35.1211,249.818 35.1211,0"/>
<polyline fill="none" stroke="#00007f" stroke-width="3" points="397.311,335.758 35.1211,249.818"/>
<polyline fill="none" stroke="#00007f" stroke-width="3" points="397.311,0 397.311,335.758 397.311,0"/>
<polyline fill="none" stroke="#00007f" stroke-width="3" points="759.5,172.773 397.311,335.758"/>
<polyline fill="none" stroke="#00007f" stroke-width="3" points="759.5,0 759.5,172.773 759.5,0"/>
<polyline fill="none" stroke="#00007f" stroke-width="3" points="1121.69,335.758 759.5,172.773"/>
<polyline fill="none" stroke="#00007f" stroke-width="3" points="1121.69,0 1121.69,335.758 1121.69,0"/>
<polyline fill="none" stroke="#00007f" stroke-width="3" points="1325,287.516 1121.69,335.758"/>
<polygon fill="#ffffff" points="35.1211,602.458 0,576.596 0,611.717"/>
<polygon fill="#ffffff" points="35.1211,249.818 0,258.151 35.1211,602.458"/>
<polygon fill="#ffffff" points="0,258.151 0,576.596 35.1211,602.458"/>
<polygon fill="#ffffff" points="35.1211,602.458 397.311,697.947 35.1211,249.818"/>
<polygon fill="#ffffff" points="397.311,697.947 397.311,335.758 35.1211,249.818"/>
<polygon fill="#ffffff" points="397.311,697.947 759.5,516.853 397.311,335.758"/>
<polygon fill="#ffffff" points="759.5,516.853 759.5,172.773 397.311,335.758"/>
<polygon fill="#ffffff" points="759.5,516.853 1121.69,697.947 759.5,172.773"/>
<polygon fill="#ffffff" points="1121.69,697.947 1121.69,335.758 759.5,172.773"/>
<polygon fill="#ffffff" points="1325,644.345 1325,485.466 1121.69,697.947"/>
<polygon fill="#ffffff" points="1325,485.466 1121.69,335.758 1121.69,697.947"/>
<polygon fill="#ffffff" points="1121.69,335.758 1325,485.466 1325,287.516"/>
<polygon fill="#ffffff" points="35.1211,249.818 0,223.03 0,258.151"/>
<polygon fill="#ffffff" points="35.1211,0 0,0 35.1211,249.818"/>
<polygon fill="#ffffff" points="0,0 0,223.03 35.1211,249.818"/>
<polygon fill="#ffffff" points="397.311,335.758 120.034,0 35.1211,249.818"/>
<polygon fill="#ffffff" points="120.034,0 35.1211,0 35.1211,249.818"/>
<polygon fill="#ffffff" points="397.311,0 120.034,0 397.311,335.758"/>
<polygon fill="#ffffff" points="759.5,172.773 445.368,0 397.311,335.758"/>
<polygon fill="#ffffff" points="445.368,0 397.311,0 397.311,335.758"/>
<polygon fill="#ffffff" points="759.5,0 445.368,0 759.5,172.773"/>
<polygon fill="#ffffff" points="1121.69,335.758 881.862,0 759.5,172.773"/>
<polygon fill="#ffffff" points="881.862,0 759.5,0 759.5,172.773"/>
<polygon fill="#ffffff" points="1121.69,0 881.862,0 1121.69,335.758"/>
<polygon fill="#ffffff" points="1325,287.516 1325,128.638 1121.69,335.758"/>
<polygon fill="#ffffff" points="1325,128.638 1156.34,0 1121.69,335.758"/>
<polygon fill="#ffffff" points="1156.34,0 1121.69,0 1121.69,335.758"/>
<polygon fill="#ffffff" points="1325,128.638 1325,0 1156.34,0"/>
<polyline fill="none" stroke="#00007f" stroke-width="3" points="0,611.717 35.1211,602.458 35.1211,249.818 0,258.151"/>
<polyline fill="none" stroke="#00007f" stroke-width="3" points="35.1211,249.818 35.1211,602.458 397.311,697.947 397.311,335.758 35.1211,249.818"/>
<polyline fill="none" stroke="#00007f" stroke-width="3" points="397.311,335.758 397.311,697.947 759.5,516.853 759.5,172.773 397.311,335.758"/>
<polyline fill="none" stroke="#00007f" stroke-width="3" points="759.5,172.773 759.5,516.853 1121.69,697.947 1121.69,335.758 759.5,172.773"/>
<polyline fill="none" stroke="#00007f" stroke-width="3" points="1121.69,697.947 1325,644.345"/>
<polyline fill="none" stroke="#00007f" stroke-width="3" points="1121.69,335.758 1121.69,697.947"/>
<polyline fill="none" stroke="#00007f" stroke-width="3" points="1325,287.516 1121.69,335.758"/>
<polyline fill="none" stroke="#00007f" stroke-width="3" points="0,258.151 35.1211,249.818 35.1211,0"/>
<polyline fill="none" stroke="#00007f" stroke-width="3" points="35.1211,249.818 397.311,335.758"/>
<polyline fill="none" stroke="#00007f" stroke-width="3" points="35.1211,0 35.1211,249.818"/>
<polyline fill="none" stroke="#00007f" stroke-width="3" points="397.311,335.758 397.311,0"/>
<polyline fill="none" stroke="#00007f" stroke-width="3" points="397.311,335.758 759.5,172.773"/>
<polyline fill="none" stroke="#00007f" stroke-width="3" points="397.311,0 397.311,335.758"/>
<polyline fill="none" stroke="#00007f" stroke-width="3" points="759.5,172.773 759.5,0"/>
<polyline fill="none" stroke="#00007f" stroke-width="3" points="759.5,172.773 1121.69,335.758"/>
<polyline fill="none" stroke="#00007f" stroke-width="3" points="759.5,0 759.5,172.773"/>
<polyline fill="none" stroke="#00007f" stroke-width="3" points="1121.69,335.758 1121.69,0"/>
<polyline fill="none" stroke="#00007f" stroke-width="3" points="1121.69,335.758 1325,287.516"/>
<polyline fill="none" stroke="#00007f" stroke-width="3" points="1121.69,0 1121.69,335.758"/>
</g>
</svg>
