<?xml version="1.0" encoding="UTF-8" standalone="no"?>
<svg xmlns="http://www.w3.org/2000/svg"
     xmlns:xlink="http://www.w3.org/1999/xlink"
     width="1325px" height="782px" viewBox="0 0 1325 782">
<title>ParaView GL2PS Export</title>
<desc>
Creator: GL2PS 1.3.8, (C) 1999-2012 C. Geuzaine
For: VTK
CreationDate: Fri Jun 20 15:02:13 2014
</desc>
<defs>
</defs>
<g>
<polyline fill="none" stroke="#00007f" stroke-width="3" points="35.1211,602.458 0,614.516"/>
<polyline fill="none" stroke="#00007f" stroke-width="3" points="0,437.593 35.1211,426.137 35.1211,602.458"/>
<polyline fill="none" stroke="#00007f" stroke-width="3" points="216.216,634.775 35.1211,602.458 35.1211,426.137 216.216,456.838 216.216,634.775"/>
<polyline fill="none" stroke="#00007f" stroke-width="3" points="397.311,697.947 216.216,634.775 216.216,456.838 397.311,516.853 397.311,697.947"/>
<polyline fill="none" stroke="#00007f" stroke-width="3" points="578.405,610.95 397.311,697.947 397.311,516.853 578.405,434.206 578.405,610.95"/>
<polyline fill="none" stroke="#00007f" stroke-width="3" points="759.5,516.853 578.405,610.95 578.405,434.206 759.5,344.813 759.5,516.853"/>
<polyline fill="none" stroke="#00007f" stroke-width="3" points="940.595,610.95 759.5,516.853 759.5,344.813 940.595,434.206 940.595,610.95"/>
<polyline fill="none" stroke="#00007f" stroke-width="3" points="1121.69,697.947 940.595,610.95 940.595,434.206 1121.69,516.853 1121.69,697.947"/>
<polyline fill="none" stroke="#00007f" stroke-width="3" points="1302.78,634.775 1121.69,697.947 1121.69,516.853 1302.78,456.838 1302.78,634.775 1302.78,456.838"/>
<polyline fill="none" stroke="#00007f" stroke-width="3" points="1325,630.81 1302.78,634.775"/>
<polyline fill="none" stroke="#00007f" stroke-width="3" points="1302.78,456.838 1325,453.072"/>
<polyline fill="none" stroke="#00007f" stroke-width="3" points="35.1211,426.137 0,437.593"/>
<polyline fill="none" stroke="#00007f" stroke-width="3" points="0,260.67 35.1211,249.818 35.1211,426.137"/>
<polyline fill="none" stroke="#00007f" stroke-width="3" points="216.216,456.838 35.1211,426.137 35.1211,249.818 216.216,278.903 216.216,456.838"/>
<polyline fill="none" stroke="#00007f" stroke-width="3" points="397.311,516.853 216.216,456.838 216.216,278.903 397.311,335.758 397.311,516.853"/>
<polyline fill="none" stroke="#00007f" stroke-width="3" points="578.405,434.206 397.311,516.853 397.311,335.758 578.405,257.46 578.405,434.206"/>
<polyline fill="none" stroke="#00007f" stroke-width="3" points="759.5,344.813 578.405,434.206 578.405,257.46 759.5,172.773 759.5,344.813"/>
<polyline fill="none" stroke="#00007f" stroke-width="3" points="940.595,434.206 759.5,344.813 759.5,172.773 940.595,257.46 940.595,434.206"/>
<polyline fill="none" stroke="#00007f" stroke-width="3" points="1121.69,516.853 940.595,434.206 940.595,257.46 1121.69,335.758 1121.69,516.853"/>
<polyline fill="none" stroke="#00007f" stroke-width="3" points="1302.78,456.838 1121.69,516.853 1121.69,335.758 1302.78,278.903 1302.78,456.838 1302.78,278.903"/>
<polyline fill="none" stroke="#00007f" stroke-width="3" points="1325,453.072 1302.78,456.838"/>
<polyline fill="none" stroke="#00007f" stroke-width="3" points="1302.78,278.903 1325,275.335"/>
<polyline fill="none" stroke="#00007f" stroke-width="3" points="35.1211,249.818 0,260.67"/>
<polyline fill="none" stroke="#00007f" stroke-width="3" points="0,83.7466 35.1211,73.4966 35.1211,249.818"/>
<polyline fill="none" stroke="#00007f" stroke-width="3" points="216.216,278.903 35.1211,249.818 35.1211,73.4966 216.216,100.967 216.216,278.903"/>
<polyline fill="none" stroke="#00007f" stroke-width="3" points="397.311,335.758 216.216,278.903 216.216,100.967 397.311,154.663 397.311,335.758"/>
<polyline fill="none" stroke="#00007f" stroke-width="3" points="578.405,257.46 397.311,335.758 397.311,154.663 578.405,80.715 578.405,257.46"/>
<polyline fill="none" stroke="#00007f" stroke-width="3" points="759.5,172.773 578.405,257.46 578.405,80.715 759.5,0.732666 759.5,172.773"/>
<polyline fill="none" stroke="#00007f" stroke-width="3" points="940.595,257.46 759.5,172.773 759.5,0.732666 940.595,80.715 940.595,257.46"/>
<polyline fill="none" stroke="#00007f" stroke-width="3" points="1121.69,335.758 940.595,257.46 940.595,80.715 1121.69,154.663 1121.69,335.758"/>
<polyline fill="none" stroke="#00007f" stroke-width="3" points="1302.78,278.903 1121.69,335.758 1121.69,154.663 1302.78,100.967 1302.78,278.903 1302.78,100.967"/>
<polyline fill="none" stroke="#00007f" stroke-width="3" points="1325,275.335 1302.78,278.903"/>
<polyline fill="none" stroke="#00007f" stroke-width="3" points="1302.78,100.967 1325,97.5969"/>
<polyline fill="none" stroke="#00007f" stroke-width="3" points="35.1211,73.4966 0,83.7466"/>
<polyline fill="none" stroke="#00007f" stroke-width="3" points="35.1211,0 35.1211,73.4966 35.1211,0"/>
<polyline fill="none" stroke="#00007f" stroke-width="3" points="216.216,100.967 35.1211,73.4966"/>
<polyline fill="none" stroke="#00007f" stroke-width="3" points="216.216,0 216.216,100.967 216.216,0"/>
<polyline fill="none" stroke="#00007f" stroke-width="3" points="397.311,154.663 216.216,100.967"/>
<polyline fill="none" stroke="#00007f" stroke-width="3" points="397.311,0 397.311,154.663 397.311,0"/>
<polyline fill="none" stroke="#00007f" stroke-width="3" points="578.405,80.715 397.311,154.663"/>
<polyline fill="none" stroke="#00007f" stroke-width="3" points="578.405,0 578.405,80.715 578.405,0"/>
<polyline fill="none" stroke="#00007f" stroke-width="3" points="759.5,0.732666 578.405,80.715"/>
<polyline fill="none" stroke="#00007f" stroke-width="3" points="759.5,0 759.5,0.732666 759.5,0"/>
<polyline fill="none" stroke="#00007f" stroke-width="3" points="940.595,80.715 759.5,0.732666"/>
<polyline fill="none" stroke="#00007f" stroke-width="3" points="940.595,0 940.595,80.715 940.595,0"/>
<polyline fill="none" stroke="#00007f" stroke-width="3" points="1121.69,154.663 940.595,80.715"/>
<polyline fill="none" stroke="#00007f" stroke-width="3" points="1121.69,0 1121.69,154.663 1121.69,0"/>
<polyline fill="none" stroke="#00007f" stroke-width="3" points="1302.78,100.967 1121.69,154.663"/>
<polyline fill="none" stroke="#00007f" stroke-width="3" points="1302.78,0 1302.78,100.967 1302.78,0"/>
<polyline fill="none" stroke="#00007f" stroke-width="3" points="1325,97.5969 1302.78,100.967"/>
<polygon fill="#ffffff" points="35.1211,602.458 0,579.719 0,614.516"/>
<polygon fill="#ffffff" points="35.1211,426.137 0,437.593 35.1211,602.458"/>
<polygon fill="#ffffff" points="0,437.593 0,579.719 35.1211,602.458"/>
<polygon fill="#ffffff" points="35.1211,602.458 216.216,634.775 35.1211,426.137"/>
<polygon fill="#ffffff" points="216.216,634.775 216.216,456.838 35.1211,426.137"/>
<polygon fill="#ffffff" points="216.216,634.775 397.311,697.947 216.216,456.838"/>
<polygon fill="#ffffff" points="397.311,697.947 397.311,516.853 216.216,456.838"/>
<polygon fill="#ffffff" points="397.311,697.947 578.405,610.95 397.311,516.853"/>
<polygon fill="#ffffff" points="578.405,610.95 578.405,434.206 397.311,516.853"/>
<polygon fill="#ffffff" points="578.405,610.95 759.5,516.853 578.405,434.206"/>
<polygon fill="#ffffff" points="759.5,516.853 759.5,344.813 578.405,434.206"/>
<polygon fill="#ffffff" points="759.5,516.853 940.595,610.95 759.5,344.813"/>
<polygon fill="#ffffff" points="940.595,610.95 940.595,434.206 759.5,344.813"/>
<polygon fill="#ffffff" points="940.595,610.95 1121.69,697.947 940.595,434.206"/>
<polygon fill="#ffffff" points="1121.69,697.947 1121.69,516.853 940.595,434.206"/>
<polygon fill="#ffffff" points="1121.69,697.947 1302.78,634.775 1121.69,516.853"/>
<polygon fill="#ffffff" points="1302.78,634.775 1302.78,456.838 1121.69,516.853"/>
<polygon fill="#ffffff" points="1325,630.81 1325,474.702 1302.78,634.775"/>
<polygon fill="#ffffff" points="1325,474.702 1302.78,456.838 1302.78,634.775"/>
<polygon fill="#ffffff" points="1302.78,456.838 1325,474.702 1325,453.072"/>
<polygon fill="#ffffff" points="35.1211,426.137 0,402.795 0,437.593"/>
<polygon fill="#ffffff" points="35.1211,249.818 0,260.67 35.1211,426.137"/>
<polygon fill="#ffffff" points="0,260.67 0,402.795 35.1211,426.137"/>
<polygon fill="#ffffff" points="35.1211,426.137 216.216,456.838 35.1211,249.818"/>
<polygon fill="#ffffff" points="216.216,456.838 216.216,278.903 35.1211,249.818"/>
<polygon fill="#ffffff" points="216.216,456.838 397.311,516.853 216.216,278.903"/>
<polygon fill="#ffffff" points="397.311,516.853 397.311,335.758 216.216,278.903"/>
<polygon fill="#ffffff" points="397.311,516.853 578.405,434.206 397.311,335.758"/>
<polygon fill="#ffffff" points="578.405,434.206 578.405,257.46 397.311,335.758"/>
<polygon fill="#ffffff" points="578.405,434.206 759.5,344.813 578.405,257.46"/>
<polygon fill="#ffffff" points="759.5,344.813 759.5,172.773 578.405,257.46"/>
<polygon fill="#ffffff" points="759.5,344.813 940.595,434.206 759.5,172.773"/>
<polygon fill="#ffffff" points="940.595,434.206 940.595,257.46 759.5,172.773"/>
<polygon fill="#ffffff" points="940.595,434.206 1121.69,516.853 940.595,257.46"/>
<polygon fill="#ffffff" points="1121.69,516.853 1121.69,335.758 940.595,257.46"/>
<polygon fill="#ffffff" points="1121.69,516.853 1302.78,456.838 1121.69,335.758"/>
<polygon fill="#ffffff" points="1302.78,456.838 1302.78,278.903 1121.69,335.758"/>
<polygon fill="#ffffff" points="1325,453.072 1325,296.965 1302.78,456.838"/>
<polygon fill="#ffffff" points="1325,296.965 1302.78,278.903 1302.78,456.838"/>
<polygon fill="#ffffff" points="1302.78,278.903 1325,296.965 1325,275.335"/>
<polygon fill="#ffffff" points="35.1211,249.818 0,225.872 0,260.67"/>
<polygon fill="#ffffff" points="35.1211,73.4966 0,83.7466 35.1211,249.818"/>
<polygon fill="#ffffff" points="0,83.7466 0,225.872 35.1211,249.818"/>
<polygon fill="#ffffff" points="35.1211,249.818 216.216,278.903 35.1211,73.4966"/>
<polygon fill="#ffffff" points="216.216,278.903 216.216,100.967 35.1211,73.4966"/>
<polygon fill="#ffffff" points="216.216,278.903 397.311,335.758 216.216,100.967"/>
<polygon fill="#ffffff" points="397.311,335.758 397.311,154.663 216.216,100.967"/>
<polygon fill="#ffffff" points="397.311,335.758 578.405,257.46 397.311,154.663"/>
<polygon fill="#ffffff" points="578.405,257.46 578.405,80.715 397.311,154.663"/>
<polygon fill="#ffffff" points="578.405,257.46 759.5,172.773 578.405,80.715"/>
<polygon fill="#ffffff" points="759.5,172.773 759.5,0.732666 578.405,80.715"/>
<polygon fill="#ffffff" points="759.5,172.773 940.595,257.46 759.5,0.732666"/>
<polygon fill="#ffffff" points="940.595,257.46 940.595,80.715 759.5,0.732666"/>
<polygon fill="#ffffff" points="940.595,257.46 1121.69,335.758 940.595,80.715"/>
<polygon fill="#ffffff" points="1121.69,335.758 1121.69,154.663 940.595,80.715"/>
<polygon fill="#ffffff" points="1121.69,335.758 1302.78,278.903 1121.69,154.663"/>
<polygon fill="#ffffff" points="1302.78,278.903 1302.78,100.967 1121.69,154.663"/>
<polygon fill="#ffffff" points="1325,275.335 1325,119.227 1302.78,278.903"/>
<polygon fill="#ffffff" points="1325,119.227 1302.78,100.967 1302.78,278.903"/>
<polygon fill="#ffffff" points="1302.78,100.967 1325,119.227 1325,97.5969"/>
<polygon fill="#ffffff" points="35.1211,73.4966 0,48.9487 0,83.7466"/>
<polygon fill="#ffffff" points="35.1211,0 0,0 35.1211,73.4966"/>
<polygon fill="#ffffff" points="0,0 0,48.9487 35.1211,73.4966"/>
<polygon fill="#ffffff" points="216.216,100.967 126.493,0 35.1211,73.4966"/>
<polygon fill="#ffffff" points="126.493,0 35.1211,0 35.1211,73.4966"/>
<polygon fill="#ffffff" points="216.216,0 126.493,0 216.216,100.967"/>
<polygon fill="#ffffff" points="397.311,154.663 276.392,0 216.216,100.967"/>
<polygon fill="#ffffff" points="276.392,0 216.216,0 216.216,100.967"/>
<polygon fill="#ffffff" points="397.311,0 276.392,0 397.311,154.663"/>
<polygon fill="#ffffff" points="578.405,80.715 441.984,0 397.311,154.663"/>
<polygon fill="#ffffff" points="441.984,0 397.311,0 397.311,154.663"/>
<polygon fill="#ffffff" points="578.405,0 441.984,0 578.405,80.715"/>
<polygon fill="#ffffff" points="759.5,0.732666 758.129,0 578.405,80.715"/>
<polygon fill="#ffffff" points="758.129,0 578.405,0 578.405,80.715"/>
<polygon fill="#ffffff" points="759.5,0 758.129,0 759.5,0.732666"/>
<polygon fill="#ffffff" points="940.595,80.715 882.596,0 759.5,0.732666"/>
<polygon fill="#ffffff" points="882.596,0 759.5,0 759.5,0.732666"/>
<polygon fill="#ffffff" points="940.595,0 882.596,0 940.595,80.715"/>
<polygon fill="#ffffff" points="1121.69,154.663 1009.96,0 940.595,80.715"/>
<polygon fill="#ffffff" points="1009.96,0 940.595,0 940.595,80.715"/>
<polygon fill="#ffffff" points="1121.69,0 1009.96,0 1121.69,154.663"/>
<polygon fill="#ffffff" points="1302.78,100.967 1159.26,0 1121.69,154.663"/>
<polygon fill="#ffffff" points="1159.26,0 1121.69,0 1121.69,154.663"/>
<polygon fill="#ffffff" points="1302.78,0 1159.26,0 1302.78,100.967"/>
<polygon fill="#ffffff" points="1325,97.5969 1325,0 1302.78,100.967"/>
<polygon fill="#ffffff" points="1325,0 1302.78,0 1302.78,100.967"/>
<polyline fill="none" stroke="#00007f" stroke-width="3" points="0,614.516 35.1211,602.458 35.1211,426.137 0,437.593"/>
<polyline fill="none" stroke="#00007f" stroke-width="3" points="35.1211,426.137 35.1211,602.458 216.216,634.775 216.216,456.838 35.1211,426.137"/>
<polyline fill="none" stroke="#00007f" stroke-width="3" points="216.216,456.838 216.216,634.775 397.311,697.947 397.311,516.853 216.216,456.838"/>
<polyline fill="none" stroke="#00007f" stroke-width="3" points="397.311,516.853 397.311,697.947 578.405,610.95 578.405,434.206 397.311,516.853"/>
<polyline fill="none" stroke="#00007f" stroke-width="3" points="578.405,434.206 578.405,610.95 759.5,516.853 759.5,344.813 578.405,434.206"/>
<polyline fill="none" stroke="#00007f" stroke-width="3" points="759.5,344.813 759.5,516.853 940.595,610.95 940.595,434.206 759.5,344.813"/>
<polyline fill="none" stroke="#00007f" stroke-width="3" points="940.595,434.206 940.595,610.95 1121.69,697.947 1121.69,516.853 940.595,434.206"/>
<polyline fill="none" stroke="#00007f" stroke-width="3" points="1121.69,516.853 1121.69,697.947 1302.78,634.775 1302.78,456.838 1121.69,516.853"/>
<polyline fill="none" stroke="#00007f" stroke-width="3" points="1302.78,634.775 1325,630.81"/>
<polyline fill="none" stroke="#00007f" stroke-width="3" points="1302.78,456.838 1302.78,634.775"/>
<polyline fill="none" stroke="#00007f" stroke-width="3" points="1325,453.072 1302.78,456.838"/>
<polyline fill="none" stroke="#00007f" stroke-width="3" points="0,437.593 35.1211,426.137 35.1211,249.818 0,260.67"/>
<polyline fill="none" stroke="#00007f" stroke-width="3" points="35.1211,249.818 35.1211,426.137 216.216,456.838 216.216,278.903 35.1211,249.818"/>
<polyline fill="none" stroke="#00007f" stroke-width="3" points="216.216,278.903 216.216,456.838 397.311,516.853 397.311,335.758 216.216,278.903"/>
<polyline fill="none" stroke="#00007f" stroke-width="3" points="397.311,335.758 397.311,516.853 578.405,434.206 578.405,257.46 397.311,335.758"/>
<polyline fill="none" stroke="#00007f" stroke-width="3" points="578.405,257.46 578.405,434.206 759.5,344.813 759.5,172.773 578.405,257.46"/>
<polyline fill="none" stroke="#00007f" stroke-width="3" points="759.5,172.773 759.5,344.813 940.595,434.206 940.595,257.46 759.5,172.773"/>
<polyline fill="none" stroke="#00007f" stroke-width="3" points="940.595,257.46 940.595,434.206 1121.69,516.853 1121.69,335.758 940.595,257.46"/>
<polyline fill="none" stroke="#00007f" stroke-width="3" points="1121.69,335.758 1121.69,516.853 1302.78,456.838 1302.78,278.903 1121.69,335.758"/>
<polyline fill="none" stroke="#00007f" stroke-width="3" points="1302.78,456.838 1325,453.072"/>
<polyline fill="none" stroke="#00007f" stroke-width="3" points="1302.78,278.903 1302.78,456.838"/>
<polyline fill="none" stroke="#00007f" stroke-width="3" points="1325,275.335 1302.78,278.903"/>
<polyline fill="none" stroke="#00007f" stroke-width="3" points="0,260.67 35.1211,249.818 35.1211,73.4966 0,83.7466"/>
<polyline fill="none" stroke="#00007f" stroke-width="3" points="35.1211,73.4966 35.1211,249.818 216.216,278.903 216.216,100.967 35.1211,73.4966"/>
<polyline fill="none" stroke="#00007f" stroke-width="3" points="216.216,100.967 216.216,278.903 397.311,335.758 397.311,154.663 216.216,100.967"/>
<polyline fill="none" stroke="#00007f" stroke-width="3" points="397.311,154.663 397.311,335.758 578.405,257.46 578.405,80.715 397.311,154.663"/>
<polyline fill="none" stroke="#00007f" stroke-width="3" points="578.405,80.715 578.405,257.46 759.5,172.773 759.5,0.732666 578.405,80.715"/>
<polyline fill="none" stroke="#00007f" stroke-width="3" points="759.5,0.732666 759.5,172.773 940.595,257.46 940.595,80.715 759.5,0.732666"/>
<polyline fill="none" stroke="#00007f" stroke-width="3" points="940.595,80.715 940.595,257.46 1121.69,335.758 1121.69,154.663 940.595,80.715"/>
<polyline fill="none" stroke="#00007f" stroke-width="3" points="1121.69,154.663 1121.69,335.758 1302.78,278.903 1302.78,100.967 1121.69,154.663"/>
<polyline fill="none" stroke="#00007f" stroke-width="3" points="1302.78,278.903 1325,275.335"/>
<polyline fill="none" stroke="#00007f" stroke-width="3" points="1302.78,100.967 1302.78,278.903"/>
<polyline fill="none" stroke="#00007f" stroke-width="3" points="1325,97.5969 1302.78,100.967"/>
<polyline fill="none" stroke="#00007f" stroke-width="3" points="0,83.7466 35.1211,73.4966 35.1211,0"/>
<polyline fill="none" stroke="#00007f" stroke-width="3" points="35.1211,73.4966 216.216,100.967"/>
<polyline fill="none" stroke="#00007f" stroke-width="3" points="35.1211,0 35.1211,73.4966"/>
<polyline fill="none" stroke="#00007f" stroke-width="3" points="216.216,100.967 216.216,0"/>
<polyline fill="none" stroke="#00007f" stroke-width="3" points="216.216,100.967 397.311,154.663"/>
<polyline fill="none" stroke="#00007f" stroke-width="3" points="216.216,0 216.216,100.967"/>
<polyline fill="none" stroke="#00007f" stroke-width="3" points="397.311,154.663 397.311,0"/>
<polyline fill="none" stroke="#00007f" stroke-width="3" points="397.311,154.663 578.405,80.715"/>
<polyline fill="none" stroke="#00007f" stroke-width="3" points="397.311,0 397.311,154.663"/>
<polyline fill="none" stroke="#00007f" stroke-width="3" points="578.405,80.715 578.405,0"/>
<polyline fill="none" stroke="#00007f" stroke-width="3" points="578.405,80.715 759.5,0.732666"/>
<polyline fill="none" stroke="#00007f" stroke-width="3" points="578.405,0 578.405,80.715"/>
<polyline fill="none" stroke="#00007f" stroke-width="3" points="759.5,0.732666 759.5,0"/>
<polyline fill="none" stroke="#00007f" stroke-width="3" points="759.5,0.732666 940.595,80.715"/>
<polyline fill="none" stroke="#00007f" stroke-width="3" points="759.5,0 759.5,0.732666"/>
<polyline fill="none" stroke="#00007f" stroke-width="3" points="940.595,80.715 940.595,0"/>
<polyline fill="none" stroke="#00007f" stroke-width="3" points="940.595,80.715 1121.69,154.663"/>
<polyline fill="none" stroke="#00007f" stroke-width="3" points="940.595,0 940.595,80.715"/>
<polyline fill="none" stroke="#00007f" stroke-width="3" points="1121.69,154.663 1121.69,0"/>
<polyline fill="none" stroke="#00007f" stroke-width="3" points="1121.69,154.663 1302.78,100.967"/>
<polyline fill="none" stroke="#00007f" stroke-width="3" points="1121.69,0 1121.69,154.663"/>
<polyline fill="none" stroke="#00007f" stroke-width="3" points="1302.78,100.967 1302.78,0"/>
<polyline fill="none" stroke="#00007f" stroke-width="3" points="1302.78,100.967 1325,97.5969"/>
<polyline fill="none" stroke="#00007f" stroke-width="3" points="1302.78,0 1302.78,100.967"/>
</g>
</svg>
